# xmcd
#
# Track frame offsets: 
#        150
#        23322
#        39221
#        58343
#        76033
#        91533
#        110453
#        130939
#        152085
#        170647
#        186489
#
# Disc length: 2797 seconds
#
# Revision: 0
# Processed by: cddbd v1.5.1PL0 Copyright (c) Steve Scherf et al.
# Submitted via: ExactAudioCopy v0.95b3
#
DISCID=7c0aeb0b
DTITLE=Kenny Chesney - The Road and the Radio
DYEAR=2005
DGENRE=Country
TTITLE0=The Road and the Radio
TTITLE1=Living In Fast Forward
TTITLE2=Who You'd Be Today
TTITLE3=You Save Me
TTITLE4=Summertime
TTITLE5=In A Small Town
TTITLE6=Beer In Mexico
TTITLE7=Freedom
TTITLE8=Tequila Loves Me
TTITLE9=Somebody Take Me Home
TTITLE10=Like Me
EXTD=
EXTT0=
EXTT1=
EXTT2=
EXTT3=
EXTT4=
EXTT5=
EXTT6=
EXTT7=
EXTT8=
EXTT9=
EXTT10=
PLAYORDER=
